<?xml version="1.0" standalone="no"?>
<!DOCTYPE svg PUBLIC "-//W3C//DTD SVG 20010904//EN"
 "http://www.w3.org/TR/2001/REC-SVG-20010904/DTD/svg10.dtd">
<svg version="1.0" xmlns="http://www.w3.org/2000/svg"
 width="1200.000000pt" height="1200.000000pt" viewBox="0 0 1200.000000 1200.000000"
 preserveAspectRatio="xMidYMid meet">
<metadata>
Created by potrace 1.14, written by Peter Selinger 2001-2017
</metadata>
<g transform="translate(0.000000,1200.000000) scale(0.100000,-0.100000)"
fill="#000000" stroke="none">
<path d="M6447 9483 c-21 -13 -43 -35 -49 -48 -6 -14 -14 -25 -18 -25 -4 0
-10 -8 -14 -17 -3 -10 -10 -25 -15 -33 -36 -55 -161 -271 -161 -279 0 -5 -4
-11 -8 -13 -4 -1 -18 -20 -31 -40 -12 -21 -30 -38 -39 -39 -9 0 -36 -2 -59 -4
-41 -4 -43 -3 -115 77 -94 104 -108 119 -182 202 -115 130 -144 150 -211 141
-67 -8 -114 -62 -141 -160 -1 -5 -19 -55 -39 -110 -20 -55 -53 -147 -74 -205
l-37 -105 -57 -18 c-55 -18 -59 -18 -85 -1 -47 30 -257 189 -260 197 -2 4 -10
7 -18 7 -8 0 -14 4 -14 9 0 15 -127 94 -157 97 -56 7 -116 -25 -143 -76 -15
-28 -15 -26 -25 -90 -7 -48 -12 -80 -20 -132 -3 -18 -8 -46 -11 -63 -2 -16 -6
-41 -9 -55 -3 -14 -7 -43 -10 -65 -3 -22 -7 -53 -10 -70 -3 -16 -7 -44 -10
-60 -4 -25 -15 -36 -61 -59 l-56 -29 -42 21 c-44 22 -261 126 -366 175 -109
51 -181 37 -223 -43 -26 -50 -26 -31 -13 -415 l6 -180 -24 -25 c-62 -65 -58
-64 -160 -39 -50 12 -98 23 -106 24 -8 1 -22 5 -30 8 -40 14 -279 67 -304 67
-38 0 -93 -35 -112 -71 -18 -36 -28 -104 -18 -127 10 -22 9 -20 18 -72 4 -25
14 -70 21 -100 11 -45 48 -204 70 -305 2 -13 -8 -34 -30 -60 -19 -22 -35 -43
-35 -48 0 -4 -87 -5 -193 -1 -356 13 -359 12 -400 -19 -46 -35 -59 -59 -62
-116 -2 -45 19 -99 175 -446 40 -89 42 -103 15 -145 -13 -21 -21 -40 -19 -43
11 -10 -34 -26 -102 -37 -38 -6 -82 -13 -99 -16 -16 -2 -43 -7 -60 -11 -16 -3
-37 -7 -45 -8 -14 -2 -138 -23 -177 -30 -10 -2 -25 -4 -35 -4 -9 -1 -36 -19
-60 -41 -42 -40 -43 -43 -43 -103 0 -56 4 -68 37 -115 21 -29 38 -57 38 -62 0
-6 5 -10 10 -10 6 0 16 -12 23 -27 6 -16 14 -30 18 -33 3 -3 21 -27 40 -55 19
-27 46 -66 62 -86 15 -20 27 -41 27 -47 0 -6 4 -12 8 -14 4 -1 18 -17 30 -34
18 -26 19 -34 9 -49 -12 -16 -16 -15 -51 9 -21 14 -46 28 -57 31 -10 4 -19 11
-19 16 0 5 -5 9 -11 9 -6 0 -25 11 -43 25 -18 14 -38 25 -44 25 -7 0 -12 5
-12 10 0 6 -7 10 -15 10 -8 0 -15 5 -15 10 0 6 -7 10 -15 10 -8 0 -15 4 -15 9
0 4 -17 20 -37 34 -123 81 -285 256 -322 345 -12 29 -11 31 76 119 48 49 99
103 113 122 14 18 34 45 46 59 122 153 226 396 250 582 13 95 6 301 -10 317
-3 3 -6 16 -6 27 0 42 -102 298 -130 326 -7 7 -29 43 -37 60 -4 8 -9 17 -13
20 -4 3 -25 30 -47 60 -22 30 -51 67 -64 81 -13 14 -33 37 -45 50 -45 51 -173
169 -254 233 -132 105 -134 106 -142 106 -8 0 -9 -3 -13 -140 -2 -94 -14 -471
-22 -680 -2 -74 -3 -146 -3 -160 1 -14 1 -29 1 -35 -3 -27 -9 -229 -10 -300
l-1 -80 -45 48 c-25 26 -45 52 -45 56 0 5 -3 11 -7 13 -5 2 -26 30 -48 63 -22
33 -42 62 -45 65 -10 10 -89 167 -113 225 -35 88 -40 99 -42 105 -15 49 -38
125 -39 134 -1 6 -5 17 -9 24 -5 6 -6 12 -3 12 3 0 1 11 -4 24 -8 21 -22 109
-36 221 -3 22 -7 82 -8 135 -3 74 -6 94 -17 92 -16 -4 -172 -106 -208 -137
-13 -11 -54 -49 -91 -86 -242 -239 -312 -513 -208 -817 28 -83 141 -278 195
-337 10 -11 30 -36 45 -55 45 -60 202 -215 304 -300 68 -58 173 -140 178 -140
12 0 48 -42 51 -60 25 -132 154 -346 315 -524 93 -103 301 -296 319 -296 6 0
11 -4 11 -9 0 -4 38 -36 85 -71 47 -35 85 -65 85 -67 0 -4 -37 -45 -125 -138
-127 -134 -287 -305 -329 -350 -50 -54 -62 -91 -52 -158 6 -36 40 -121 56
-137 3 -3 21 -25 40 -50 44 -57 78 -95 220 -243 96 -100 700 -706 700 -703 0
8 575 -570 626 -628 92 -106 184 -196 200 -196 10 0 8 16 -7 71 -11 39 -26 84
-35 100 -8 16 -12 29 -8 29 4 0 1 6 -5 13 -6 8 -8 17 -4 20 3 4 1 7 -5 7 -7 0
-12 9 -12 20 0 11 -4 20 -10 20 -5 0 -10 6 -10 14 0 35 -196 371 -247 424 -7
7 -13 20 -13 28 0 8 -4 14 -8 14 -4 0 -25 25 -47 56 -22 31 -45 61 -50 67 -6
7 -26 37 -45 67 -19 30 -37 57 -40 60 -3 3 -11 16 -19 30 -8 14 -55 90 -104
169 -49 79 -91 151 -95 160 -3 9 -8 18 -12 21 -4 3 -13 19 -22 35 -8 17 -31
59 -50 95 -58 108 -72 135 -73 140 0 3 -6 14 -12 26 -19 34 -75 177 -79 204
-3 14 -7 31 -9 38 -8 22 12 56 61 105 55 54 69 58 78 22 7 -27 61 -121 83
-143 7 -7 20 -26 30 -42 9 -17 21 -30 25 -30 4 0 8 -6 8 -14 0 -8 3 -16 8 -18
8 -3 62 -69 129 -158 23 -30 56 -70 73 -88 16 -18 30 -36 30 -39 0 -2 21 -30
48 -61 54 -65 63 -76 77 -94 6 -7 35 -43 65 -79 30 -36 69 -83 85 -104 17 -21
35 -43 40 -49 6 -6 51 -60 100 -121 49 -60 92 -112 95 -115 7 -7 50 -65 95
-130 21 -30 41 -57 45 -60 3 -3 19 -22 34 -42 16 -21 32 -38 37 -38 12 0 -28
134 -77 254 -48 118 -116 250 -181 356 -22 36 -61 106 -88 155 -26 50 -52 96
-58 103 -5 6 -6 12 -1 12 5 0 4 4 -2 8 -16 10 -151 290 -152 316 0 5 -4 12 -9
15 -12 9 -34 61 -25 61 4 0 27 -12 52 -26 82 -49 253 -134 267 -134 7 0 13 -4
13 -9 0 -5 10 -11 23 -14 12 -3 70 -25 130 -50 59 -25 107 -43 107 -41 0 3 14
-3 31 -12 17 -8 38 -17 47 -19 10 -2 40 -11 67 -21 47 -16 77 -25 82 -25 2 0
33 -9 70 -20 38 -11 115 -31 173 -44 58 -14 116 -28 130 -32 14 -3 31 -7 39
-9 7 -1 34 -7 60 -13 25 -6 57 -13 71 -15 14 -2 59 -11 100 -20 90 -18 240
-44 355 -62 28 -4 55 -8 60 -10 17 -3 121 -18 290 -39 49 -6 137 -16 190 -20
28 -3 64 -7 80 -10 17 -2 66 -7 110 -10 44 -3 96 -8 115 -10 140 -16 480 -33
797 -39 111 -3 207 -7 213 -11 5 -3 10 -2 10 3 0 6 8 9 18 7 9 -2 80 -6 157
-9 185 -6 185 -6 135 -66 -22 -26 -40 -51 -40 -56 0 -4 -8 -16 -17 -26 -16
-18 -16 -19 12 -8 50 19 210 57 235 55 8 -1 20 2 25 5 12 8 345 5 435 -4 150
-14 288 -37 440 -72 58 -14 119 -27 135 -30 17 -3 34 -9 38 -14 10 -9 -63
-101 -148 -186 -181 -181 -407 -322 -642 -400 -168 -56 -250 -71 -433 -80 -63
-4 -117 -8 -118 -9 -6 -5 82 -88 121 -115 20 -14 37 -28 37 -32 0 -5 4 -8 10
-8 5 0 26 -12 47 -26 109 -73 283 -137 443 -160 104 -16 335 -1 407 27 13 5
23 7 23 5 0 -3 44 11 98 31 53 19 103 35 110 35 6 1 12 5 12 9 0 5 14 12 50
23 3 1 12 6 20 11 8 5 44 25 80 44 36 18 67 38 68 42 2 5 10 9 18 9 8 0 14 5
14 10 0 6 5 10 12 10 6 0 31 15 55 33 69 51 147 111 159 122 6 5 32 28 59 50
54 45 236 224 305 300 38 43 90 83 90 70 0 -4 75 30 130 59 174 92 262 143
375 219 59 39 215 155 225 166 3 3 26 23 53 44 86 70 307 297 307 317 0 4 4
10 8 12 5 2 28 30 53 63 24 33 47 62 52 63 4 2 5 7 2 12 -8 12 60 75 106 99
114 57 269 155 322 205 33 31 37 32 32 9 -3 -18 -60 -185 -72 -213 -3 -8 -7
-20 -8 -26 -2 -6 -10 -27 -18 -45 -9 -19 -26 -59 -37 -89 -12 -30 -32 -78 -46
-108 -13 -29 -24 -55 -24 -58 0 -8 -77 -171 -134 -284 -61 -120 -139 -295
-137 -307 0 -2 -8 -23 -19 -48 -11 -25 -17 -45 -13 -45 3 0 0 -7 -7 -15 -7 -8
-9 -15 -6 -15 4 0 2 -9 -4 -21 -6 -11 -13 -29 -16 -40 -2 -10 -6 -29 -9 -41
-3 -13 -8 -41 -11 -63 l-7 -40 20 25 c25 32 137 211 150 240 4 8 11 20 15 25
5 6 26 35 48 65 22 30 43 60 48 65 4 6 17 25 27 43 11 17 23 32 27 32 4 0 8 4
8 10 0 11 71 113 82 118 5 2 8 8 8 14 0 11 51 81 63 86 4 2 7 7 7 12 0 7 194
297 218 326 5 5 15 21 22 35 7 13 16 26 19 29 13 10 151 230 151 240 0 5 4 10
8 10 4 0 14 16 21 35 15 44 30 44 75 2 33 -32 35 -36 31 -88 -5 -75 -13 -118
-36 -196 -11 -38 -21 -75 -23 -83 -17 -64 -131 -389 -156 -445 -5 -11 -32 -76
-60 -145 -29 -69 -83 -189 -121 -267 -38 -78 -69 -144 -69 -146 0 -3 -9 -25
-20 -51 -12 -25 -21 -48 -20 -51 0 -3 -7 -19 -15 -35 -9 -17 -13 -30 -9 -30 4
0 2 -6 -3 -12 -6 -7 -20 -47 -32 -88 -13 -41 -26 -86 -31 -100 -7 -21 -30
-122 -35 -155 -1 -5 -3 -12 -4 -15 -9 -21 -7 -111 2 -117 6 -3 12 -2 14 4 2 6
15 24 29 40 13 15 27 36 30 46 3 9 10 17 15 17 5 0 9 4 9 9 0 12 178 298 202
325 5 6 52 72 105 146 52 74 98 137 101 140 4 3 29 39 57 80 27 41 52 77 55
80 3 3 39 54 80 113 70 101 139 199 157 222 4 6 22 30 38 55 17 25 33 47 38
48 4 2 7 10 7 18 0 8 5 14 10 14 6 0 10 7 10 15 0 8 5 15 10 15 6 0 10 6 10
14 0 8 3 16 8 18 10 4 64 78 57 78 -3 0 3 10 15 22 11 12 20 25 20 29 0 4 6
14 13 21 24 26 77 106 77 117 0 6 5 11 10 11 6 0 14 10 19 23 5 12 25 44 45
72 20 27 36 56 36 62 0 7 4 13 9 13 5 0 11 8 14 18 8 23 40 75 52 84 6 4 6 8
1 8 -5 0 -4 6 2 13 16 20 39 109 37 147 -4 70 -16 94 -63 130 -26 19 -53 40
-62 47 -23 18 -94 70 -200 148 -52 38 -99 73 -105 77 -5 5 -59 45 -120 89 -60
43 -117 85 -125 92 -8 7 -31 23 -50 37 -165 115 -215 159 -228 200 -12 41 -12
42 31 103 24 34 46 70 50 80 3 9 11 17 16 17 5 0 13 9 16 20 3 11 12 26 20 33
32 32 168 251 171 275 6 45 -17 111 -48 137 -30 26 -89 45 -148 50 -19 2 -60
8 -90 14 -30 6 -68 13 -85 16 -16 2 -39 7 -50 9 -11 2 -40 7 -65 11 -74 11
-101 15 -113 18 -6 1 -24 27 -40 57 -33 62 -33 63 25 187 16 35 28 64 26 65
-1 2 5 17 14 33 40 72 115 257 122 299 7 41 -25 108 -64 136 -38 27 -69 28
-397 17 -200 -8 -186 -11 -238 58 -20 25 -24 40 -20 66 3 18 8 35 10 39 2 4 7
22 10 41 3 19 15 71 25 116 11 46 22 93 24 105 6 28 11 48 27 113 26 108 11
175 -49 220 -28 20 -98 27 -152 13 -14 -3 -80 -20 -148 -37 -68 -17 -133 -33
-145 -35 -12 -3 -22 -5 -22 -6 0 -1 -8 -3 -19 -5 -10 -2 -40 -9 -67 -15 -48
-12 -49 -12 -94 27 l-45 38 5 200 c4 110 7 232 9 270 1 39 -2 85 -7 104 -16
63 -87 112 -150 105 -15 -1 -58 -17 -95 -35 -37 -17 -110 -52 -162 -76 -52
-25 -127 -60 -166 -79 -39 -19 -76 -34 -81 -34 -6 0 -23 10 -39 23 -16 12 -31
21 -34 19 -13 -6 -40 30 -41 55 -2 30 -2 36 -18 128 -6 33 -12 74 -15 91 -2
17 -7 51 -11 75 -3 24 -8 56 -11 72 -23 151 -34 177 -87 212 -44 28 -129 26
-157 -5 -3 -3 -34 -27 -70 -52 -36 -26 -70 -51 -75 -56 -6 -4 -46 -35 -90 -67
-102 -75 -95 -70 -129 -100 -30 -26 -65 -32 -81 -16 -6 6 -23 12 -40 14 -20 2
-34 12 -42 28 -17 37 -43 103 -48 124 -2 6 -13 36 -25 67 -12 32 -20 59 -19
60 1 2 -3 13 -10 26 -7 13 -14 31 -16 40 -7 34 -57 158 -77 190 -33 53 -103
72 -173 46 -24 -9 -47 -32 -200 -204 -205 -231 -181 -211 -245 -205 -40 5 -60
12 -72 28 -10 12 -22 27 -28 34 -5 7 -10 16 -10 20 0 5 -16 32 -35 62 -19 29
-35 54 -35 56 0 2 -31 56 -70 120 -38 64 -70 119 -70 123 -1 18 -59 61 -95 70
-55 14 -65 12 -108 -15z m2777 -5311 c-11 -9 -33 -26 -48 -37 -16 -11 -35 -27
-44 -35 -8 -8 -23 -19 -33 -25 -9 -5 -45 -30 -80 -55 -35 -24 -71 -45 -79 -46
-8 -2 -44 -10 -80 -19 -36 -8 -76 -18 -90 -21 -14 -2 -33 -7 -42 -10 -15 -4
-18 2 -19 38 -1 24 0 55 1 71 1 15 -3 27 -9 27 -6 0 -11 4 -11 9 0 6 8 10 18
10 9 0 60 9 112 21 52 12 110 23 129 26 18 2 37 6 41 9 4 3 25 7 45 11 48 7
110 21 110 24 0 1 13 3 29 5 15 2 31 6 34 9 3 3 12 6 21 6 13 -1 12 -4 -5 -18z"/>
</g>
</svg>
